<?xml version="1.0" standalone="no"?>
<!DOCTYPE svg PUBLIC "-//W3C//DTD SVG 20010904//EN"
 "http://www.w3.org/TR/2001/REC-SVG-20010904/DTD/svg10.dtd">
<svg version="1.0" xmlns="http://www.w3.org/2000/svg"
 width="370.000000pt" height="370.000000pt" viewBox="0 0 370.000000 370.000000"
 preserveAspectRatio="xMidYMid meet">
<metadata>
Created by potrace 1.14, written by Peter Selinger 2001-2017
</metadata>
<g transform="translate(0.000000,370.000000) scale(0.100000,-0.100000)"
fill="#000000" stroke="none">
<path d="M3145 2765 c-79 -22 -136 -56 -197 -117 -97 -98 -133 -193 -126 -332
4 -77 10 -103 38 -161 134 -280 492 -342 710 -123 240 240 127 646 -205 734
-63 17 -155 16 -220 -1z"/>
<path d="M187 2576 c8 -12 1004 -1509 1008 -1514 1 -1 32 44 68 100 37 57 71
110 77 118 40 57 140 215 140 221 0 4 4 9 8 11 4 2 17 19 29 38 l22 35 -335
503 -335 503 -344 -2 c-241 -2 -342 -6 -338 -13z"/>
<path d="M1892 1761 l3 -825 320 -1 c176 0 327 1 336 3 14 3 15 85 15 825 l-1
822 -338 1 -337 0 2 -825z"/>
<path d="M182 1441 c-108 -37 -174 -124 -178 -239 -3 -77 17 -136 65 -190 128
-143 352 -113 442 58 32 62 33 176 1 236 -63 123 -201 179 -330 135z"/>
</g>
</svg>
